<svg width="30" height="30" viewBox="0 0 30 30" fill="none" xmlns="http://www.w3.org/2000/svg">
<path d="M15.6369 22.2394C15.236 22.0362 14.764 22.0362 14.3631 22.2394L9.22429 24.8439C8.13595 25.3955 6.91053 24.3991 7.20565 23.2025L8.4072 18.3306C8.52208 17.8648 8.40099 17.3715 8.08412 17.0146L4.11769 12.5473C3.32706 11.6568 3.88869 10.2339 5.06708 10.1421L10.6003 9.7106C11.1179 9.67024 11.5729 9.34761 11.7877 8.86856L13.7034 4.59629C14.2094 3.4679 15.7906 3.4679 16.2966 4.59629L18.2123 8.86856C18.4271 9.34761 18.8821 9.67024 19.3997 9.7106L24.9329 10.1421C26.1113 10.2339 26.6729 11.6568 25.8823 12.5473L21.9159 17.0146C21.599 17.3715 21.4779 17.8648 21.5928 18.3306L22.7944 23.2025C23.0895 24.3991 21.864 25.3955 20.7757 24.8439L15.6369 22.2394Z" stroke="#001A72" stroke-width="1.5" stroke-linecap="round" stroke-linejoin="round"/>
</svg>
